<?xml version="1.0" encoding="UTF-8" standalone="no"?>
<!-- Created with Inkscape (http://www.inkscape.org/) -->
<svg
   xmlns:dc="http://purl.org/dc/elements/1.1/"
   xmlns:cc="http://web.resource.org/cc/"
   xmlns:rdf="http://www.w3.org/1999/02/22-rdf-syntax-ns#"
   xmlns:svg="http://www.w3.org/2000/svg"
   xmlns="http://www.w3.org/2000/svg"
   xmlns:sodipodi="http://sodipodi.sourceforge.net/DTD/sodipodi-0.dtd"
   xmlns:inkscape="http://www.inkscape.org/namespaces/inkscape"
   version="1.0"
   width="744.09448"
   height="1052.3622"
   id="svg2"
   sodipodi:version="0.32"
   inkscape:version="0.44.1"
   sodipodi:docname="runexplain.svg"
   sodipodi:docbase="/home/pvanek/sqliteman/src/icons">
  <metadata
     id="metadata2812">
    <rdf:RDF>
      <cc:Work
         rdf:about="">
        <dc:format>image/svg+xml</dc:format>
        <dc:type
           rdf:resource="http://purl.org/dc/dcmitype/StillImage" />
      </cc:Work>
    </rdf:RDF>
  </metadata>
  <sodipodi:namedview
     inkscape:window-height="1024"
     inkscape:window-width="1605"
     inkscape:pageshadow="2"
     inkscape:pageopacity="0.0"
     guidetolerance="10.0"
     gridtolerance="10.0"
     objecttolerance="10.0"
     borderopacity="1.0"
     bordercolor="#666666"
     pagecolor="#ffffff"
     id="base"
     inkscape:zoom="0.41335579"
     inkscape:cx="372.04724"
     inkscape:cy="526.18109"
     inkscape:window-x="0"
     inkscape:window-y="0"
     inkscape:current-layer="svg2" />
  <defs
     id="defs3" />
  <g
     id="g2835"
     transform="matrix(0.162453,0,0,0.162453,331.2823,442.7493)"
     style="stroke:black;stroke-width:36.69984436;stroke-miterlimit:4;stroke-dasharray:none;stroke-opacity:1"
     inkscape:export-filename="/home/pvanek/sqliteman/src/icons/explain.png"
     inkscape:export-xdpi="90"
     inkscape:export-ydpi="90">
    <path
       d="M 275.06178,238.07647 L 180.09867,325.70458 L 84.670458,412.05762 L 84.205349,238.07646 L 84.670457,64.095318 L 180.09867,150.44837 L 275.06178,238.07647 z "
       style="fill:lime;fill-opacity:1;stroke:black;stroke-width:36.69984436;stroke-linecap:butt;stroke-linejoin:miter;stroke-miterlimit:4;stroke-dasharray:none;stroke-dashoffset:0;stroke-opacity:1"
       id="path2837" />
  </g>
  <path
     style="font-size:144px;font-style:normal;font-weight:normal;fill:#f0e400;fill-opacity:1;stroke:black;stroke-width:3.39598131;stroke-linecap:butt;stroke-linejoin:miter;stroke-miterlimit:4;stroke-dasharray:none;stroke-opacity:1;font-family:DejaVu Sans Mono"
     d="M 370.74088,502.6022 L 359.26989,502.6022 L 359.26989,494.60717 C 359.26984,491.21535 359.87359,488.34267 361.08108,485.9891 C 362.3288,483.60101 364.6431,480.98791 368.02406,478.1498 L 373.45768,473.52928 C 375.95308,471.48731 377.66368,469.70485 378.58944,468.18192 C 379.55539,466.65912 380.03835,465.04974 380.0384,463.35377 C 380.03835,460.27347 378.71013,457.78153 376.05374,455.87785 C 373.43751,453.97435 369.93585,453.02256 365.54873,453.02247 C 362.40927,453.02256 359.04847,453.62823 355.46635,454.83953 C 351.88415,456.01638 348.12086,457.78153 344.17646,460.13497 L 344.17646,450.37478 C 347.95987,448.40204 351.7634,446.93109 355.58709,445.96192 C 359.45098,444.99291 363.47587,444.50834 367.66182,444.50827 C 375.1481,444.50834 381.10495,446.16966 385.53239,449.4922 C 390,452.8149 392.23382,457.26236 392.23389,462.8346 C 392.23382,465.46508 391.54959,467.92241 390.18118,470.20668 C 388.85291,472.45641 386.29709,475.17334 382.51372,478.35747 L 377.20085,482.82223 C 374.42361,485.10657 372.65267,486.97553 371.88796,488.42917 C 371.12319,489.88285 370.74084,491.66529 370.74088,493.7765 L 370.74088,496.21655 L 370.74088,502.6022 M 358.84727,510.23386 L 371.10311,510.23386 L 371.10311,523.42051 L 358.84727,523.42051 L 358.84727,510.23386"
     id="text2814"
     inkscape:export-filename="/home/pvanek/sqliteman/src/icons/explain.png"
     inkscape:export-xdpi="90"
     inkscape:export-ydpi="90" />
</svg>
