<?xml version="1.0" encoding="UTF-8" standalone="no"?>
<!-- Created with Inkscape (http://www.inkscape.org/) -->
<svg
   xmlns:dc="http://purl.org/dc/elements/1.1/"
   xmlns:cc="http://web.resource.org/cc/"
   xmlns:rdf="http://www.w3.org/1999/02/22-rdf-syntax-ns#"
   xmlns:svg="http://www.w3.org/2000/svg"
   xmlns="http://www.w3.org/2000/svg"
   xmlns:xlink="http://www.w3.org/1999/xlink"
   xmlns:sodipodi="http://sodipodi.sourceforge.net/DTD/sodipodi-0.dtd"
   xmlns:inkscape="http://www.inkscape.org/namespaces/inkscape"
   width="744.09448819"
   height="1052.3622047"
   id="svg2"
   inkscape:label="Pozadí"
   sodipodi:version="0.32"
   inkscape:version="0.44.1"
   sodipodi:docbase="/home/pvanek/sqliteman-svn/sqliteman/src/icons"
   sodipodi:docname="sqliteman.svg">
  <defs
     id="defs3" />
  <sodipodi:namedview
     id="base"
     pagecolor="#ffffff"
     bordercolor="#666666"
     borderopacity="1.0"
     inkscape:pageopacity="0.0"
     inkscape:pageshadow="2"
     inkscape:zoom="0.35"
     inkscape:cx="375"
     inkscape:cy="520"
     inkscape:document-units="px"
     inkscape:current-layer="layer2"
     inkscape:window-width="976"
     inkscape:window-height="619"
     inkscape:window-x="0"
     inkscape:window-y="0" />
  <metadata
     id="metadata6">
    <rdf:RDF>
      <cc:Work
         rdf:about="">
        <dc:format>image/svg+xml</dc:format>
        <dc:type
           rdf:resource="http://purl.org/dc/dcmitype/StillImage" />
      </cc:Work>
    </rdf:RDF>
  </metadata>
  <g
     inkscape:label="Vrstva 1"
     inkscape:groupmode="layer"
     id="layer1">
    <image
       y="180.36217"
       x="90.857109"
       id="image1944"
       height="412.57144"
       width="412.57144"
       sodipodi:absref="/home/pvanek/sqliteman-svn/sqliteman/src/icons/database.png"
       xlink:href="database.png" />
  </g>
  <g
     inkscape:groupmode="layer"
     id="layer2"
     inkscape:label="foo">
    <g
       id="g2897"
       transform="matrix(0.884884,5.313046e-2,0,0.729376,-175.254,-11.8277)"
       style="fill:#b20032;fill-opacity:1;stroke:black;stroke-width:7.22326708;stroke-miterlimit:4;stroke-dasharray:none;stroke-opacity:1">
      <image
         style="fill:#b20032;fill-opacity:1;stroke:black;stroke-width:7.2233057;stroke-miterlimit:4;stroke-dasharray:none;stroke-opacity:1"
         transform="matrix(0.964827,0.262884,-0.258523,0.966005,0,0)"
         xlink:href="/home/pvanek/sqliteman-svn/weight.png"
         sodipodi:absref="/home/pvanek/sqliteman-svn/weight.png"
         width="250.1644"
         height="314.4422"
         id="image2892"
         x="689.61951"
         y="275.68521" />
      <path
         id="path2895"
         d="M 596.77234,765.63859 C 581.6972,755.15963 567.94363,736.73887 562.22684,719.37028 C 559.06511,709.76439 558.35049,684.41173 560.04292,641.89114 C 562.12566,589.56474 564.1758,572.64668 571.95769,543.56861 C 581.20428,509.01753 581.59217,508.26757 595.84933,497.37504 C 613.01139,484.26316 642.84757,473.15572 661.12897,473.07267 C 668.32095,473.04 683.07515,475.65997 693.91608,478.89483 C 704.75701,482.12968 709.00337,484.15763 703.35244,483.40137 C 685.02247,480.94829 644.82923,486.38555 626.673,493.77439 C 616.92929,497.73969 602.32312,507.23002 594.21485,514.86402 C 576.19536,531.82951 568.48357,555.28359 572.66091,580.41657 C 574.13952,589.31259 573.99799,601.80227 572.34641,608.1714 C 566.17685,631.96365 565.10103,698.58177 570.59157,716.83641 C 577.32837,739.23448 593.30412,758.64015 614.67646,770.38612 C 629.33646,778.44306 629.89536,779.13169 619.60353,776.45674 C 613.21876,774.79728 602.94473,769.92911 596.77234,765.63859 z M 660.00935,784.54212 C 710.81551,787.71041 762.55398,759.27139 772.31088,722.81348 C 774.79605,713.5273 776.19538,703.07193 775.42051,699.57932 C 774.64563,696.08671 776.92522,669.31466 780.48626,640.08587 C 787.89774,579.25285 788.03744,567.57036 781.5943,547.42133 C 775.01662,526.85154 748.59965,500.8609 721.54226,488.33842 C 717.20206,486.32973 723.0782,487.03777 734.60035,489.91186 C 768.34321,498.32867 789.45613,521.55625 795.61106,557.03332 C 800.93221,587.70451 792.80666,659.48389 777.56736,716.42754 C 767.1664,755.29207 765.20836,759.92426 755.70125,768.15672 C 732.4699,788.27339 691.05782,796.88778 661.14739,787.82547 L 647.79702,783.78056 L 660.00935,784.54212 z M 616.61659,641.72064 C 606.25569,635.22223 591.11784,621.14835 589.81023,616.79837 C 589.22198,614.84148 598.43564,620.29902 610.28502,628.92623 C 622.13441,637.55344 633.83644,646.05985 636.28955,647.82935 C 643.09254,652.73657 625.44156,647.25571 616.61659,641.72064 z M 649.94215,639.23247 C 646.42689,633.13493 649.77386,618.64063 654.40572,619.90267 C 656.22422,620.39815 656.92443,623.74673 655.96174,627.34396 C 654.83161,631.56686 656.94388,635.41649 661.92291,638.20824 C 666.16424,640.58636 669.27991,643.85678 668.84662,645.47583 C 667.6826,649.82535 653.31311,645.07971 649.94215,639.23247 z M 681.73019,646.35072 C 678.34301,640.47534 681.57612,638.43795 689.42732,641.50028 C 697.46969,644.63717 703.85849,651.08899 697.09848,649.24711 C 695.12563,648.70957 691.24105,648.49777 688.4661,648.77644 C 685.69114,649.0551 682.65999,647.96353 681.73019,646.35072 z M 663.32725,632.96073 C 662.68933,630.83859 663.65526,629.50769 665.47377,630.00317 C 667.29227,630.49865 669.30208,632.64035 669.94,634.76248 C 670.57792,636.88462 669.61199,638.21552 667.79349,637.72004 C 665.97498,637.22456 663.96517,635.08286 663.32725,632.96073 z M 691.78994,628.15076 C 690.91734,622.95052 690.97992,615.79419 691.92901,612.24781 C 692.87809,608.70143 691.80213,605.69362 689.53798,605.56379 C 687.17233,605.42815 685.95504,598.86143 686.67609,590.12519 C 688.50152,568.00818 686.15379,567.9494 682.62707,590.02381 C 679.81905,607.5997 679.06818,608.91033 672.78728,607.19899 C 669.0474,606.18 664.72368,606.99453 663.17901,609.00906 C 658.17719,615.53238 648.9187,591.81939 650.49433,576.52087 C 651.58339,565.9467 654.13424,560.03223 660.13059,554.17797 C 666.88927,547.57944 667.78696,545.13054 665.37303,539.87656 C 663.77105,536.38982 663.94821,533.94242 665.76672,534.43791 C 671.64449,536.03941 674.57979,546.93603 670.74504,552.91875 C 667.71466,557.64656 668.83267,559.53249 676.69976,562.96359 C 682.46382,565.47749 688.33728,565.81353 691.20639,563.79358 C 695.10474,561.04899 693.94626,560.25564 685.15345,559.64839 C 678.47164,559.18694 674.63899,557.55397 675.21205,555.41268 C 675.72497,553.49608 679.5584,552.3487 683.73079,552.86295 C 688.40565,553.43913 692.83343,550.97195 695.26856,546.43404 C 698.79114,539.86966 699.54115,539.76871 702.17631,545.50419 C 703.80218,549.04293 703.95017,553.04694 702.50518,554.402 C 701.0602,555.75706 702.92242,559.38751 706.64346,562.46966 C 712.26876,567.12912 712.87985,571.60812 710.2694,589.0459 C 708.39586,601.56114 705.38841,611.24425 702.81135,613.0586 C 699.85257,615.14169 699.78787,619.22052 702.60588,626.01324 C 707.78715,638.50254 707.11122,641.34802 699.4585,639.26291 C 696.11339,638.35147 692.66253,633.35101 691.78994,628.15076 z M 673.42585,588.59821 C 676.1888,578.27407 673.68621,568.47741 667.88193,566.89593 C 663.70606,565.75814 659.08714,587.41462 662.31245,593.00923 C 667.12558,601.35804 670.35398,600.07666 673.42585,588.59821 z M 699.15848,597.55784 C 699.39515,596.16108 699.1053,591.69837 698.51438,587.64071 C 697.56231,581.10327 697.1368,581.28987 694.7777,589.27939 C 693.31345,594.23833 693.6033,598.70104 695.4218,599.19652 C 697.24031,599.69201 698.92182,598.9546 699.15848,597.55784 z M 699.95376,575.63446 C 699.31584,573.51232 698.13778,571.59725 697.33585,571.37875 C 696.53392,571.16025 695.48018,572.46723 694.9942,574.28314 C 694.50823,576.09905 695.68629,578.01412 697.61212,578.53885 C 699.53794,579.06357 700.59169,577.7566 699.95376,575.63446 z M 679.68792,545.3158 C 679.04999,543.19366 680.10374,541.88669 682.02956,542.41141 C 683.95539,542.93614 685.13345,544.85121 684.64748,546.66712 C 684.1615,548.48303 683.10776,549.79001 682.30583,549.57151 C 681.5039,549.35301 680.32584,547.43794 679.68792,545.3158 z M 674.52866,527.2913 C 664.50356,517.99129 663.50834,510.06007 671.77228,505.32497 C 680.20714,500.49194 690.71553,507.38847 690.02421,517.30349 L 689.49029,524.96096 L 691.8691,517.8774 C 694.91913,508.7951 708.0769,507.88642 712.99562,516.4184 C 718.9831,526.80423 707.65356,535.96603 694.74801,531.17458 C 688.01845,528.6761 684.40558,528.82718 684.24168,531.61395 C 684.10429,533.94997 683.66209,535.60231 683.25902,535.2858 C 682.85594,534.9693 678.92728,531.37178 674.52866,527.2913 z M 718.99606,512.04869 C 715.4509,504.33257 717.84535,501.65847 723.19508,507.35926 C 725.23385,509.53182 725.80703,512.96428 724.46882,514.98696 C 722.73817,517.60279 721.15812,516.75448 718.99606,512.04869 z "
         style="fill:#b20032;fill-opacity:1;stroke:black;stroke-width:7.22326708;stroke-miterlimit:4;stroke-dasharray:none;stroke-opacity:1" />
    </g>
  </g>
</svg>
